<mxfile host="app.diagrams.net" modified="2024-04-05T23:10:42.658Z" agent="Mozilla/5.0 (Windows NT 10.0; Win64; x64) AppleWebKit/537.36 (KHTML, like Gecko) Chrome/123.0.0.0 Safari/537.36" etag="xEdOORZAf4BjEAJQxucZ" version="24.2.2" type="google">
  <diagram id="C5RBs43oDa-KdzZeNtuy" name="Page-1">
    <mxGraphModel grid="1" page="1" gridSize="10" guides="1" tooltips="1" connect="1" arrows="1" fold="1" pageScale="1" pageWidth="827" pageHeight="1169" math="0" shadow="0">
      <root>
        <mxCell id="WIyWlLk6GJQsqaUBKTNV-0" />
        <mxCell id="WIyWlLk6GJQsqaUBKTNV-1" parent="WIyWlLk6GJQsqaUBKTNV-0" />
        <mxCell id="ji7AS938hCVisJoLDrU9-24" value="SRT Database" style="swimlane;whiteSpace=wrap;html=1;" vertex="1" parent="WIyWlLk6GJQsqaUBKTNV-1">
          <mxGeometry x="525" y="-1010" width="550" height="360" as="geometry" />
        </mxCell>
        <mxCell id="ji7AS938hCVisJoLDrU9-7" value="Risk" style="swimlane;whiteSpace=wrap;html=1;labelBackgroundColor=default;" vertex="1" parent="ji7AS938hCVisJoLDrU9-24">
          <mxGeometry x="30" y="43.5" width="200" height="279" as="geometry">
            <mxRectangle x="90" y="70" width="140" height="30" as="alternateBounds" />
          </mxGeometry>
        </mxCell>
        <mxCell id="ji7AS938hCVisJoLDrU9-14" value="ID: TINYTEXT" style="text;align=left;verticalAlign=top;spacingLeft=4;spacingRight=4;overflow=hidden;rotatable=0;points=[[0,0.5],[1,0.5]];portConstraint=eastwest;rounded=0;shadow=0;html=0;" vertex="1" parent="ji7AS938hCVisJoLDrU9-7">
          <mxGeometry y="20" width="160" height="26" as="geometry" />
        </mxCell>
        <mxCell id="ji7AS938hCVisJoLDrU9-15" value="shortDescription: TEXT" style="text;align=left;verticalAlign=top;spacingLeft=4;spacingRight=4;overflow=hidden;rotatable=0;points=[[0,0.5],[1,0.5]];portConstraint=eastwest;rounded=0;shadow=0;html=0;" vertex="1" parent="ji7AS938hCVisJoLDrU9-7">
          <mxGeometry y="46" width="160" height="26" as="geometry" />
        </mxCell>
        <mxCell id="ji7AS938hCVisJoLDrU9-16" value="longDescription: MEDIUMTEXT " style="text;align=left;verticalAlign=top;spacingLeft=4;spacingRight=4;overflow=hidden;rotatable=0;points=[[0,0.5],[1,0.5]];portConstraint=eastwest;rounded=0;shadow=0;html=0;" vertex="1" parent="ji7AS938hCVisJoLDrU9-7">
          <mxGeometry y="72" width="180" height="26" as="geometry" />
        </mxCell>
        <mxCell id="ji7AS938hCVisJoLDrU9-17" value="likelihoodRank: TINYINT" style="text;align=left;verticalAlign=top;spacingLeft=4;spacingRight=4;overflow=hidden;rotatable=0;points=[[0,0.5],[1,0.5]];portConstraint=eastwest;rounded=0;shadow=0;html=0;" vertex="1" parent="ji7AS938hCVisJoLDrU9-7">
          <mxGeometry y="98" width="160" height="26" as="geometry" />
        </mxCell>
        <mxCell id="ji7AS938hCVisJoLDrU9-18" value="impactRank: TINYINT" style="text;align=left;verticalAlign=top;spacingLeft=4;spacingRight=4;overflow=hidden;rotatable=0;points=[[0,0.5],[1,0.5]];portConstraint=eastwest;rounded=0;shadow=0;html=0;" vertex="1" parent="ji7AS938hCVisJoLDrU9-7">
          <mxGeometry y="124" width="160" height="26" as="geometry" />
        </mxCell>
        <mxCell id="ji7AS938hCVisJoLDrU9-19" value="owner: TINYTEXT" style="text;align=left;verticalAlign=top;spacingLeft=4;spacingRight=4;overflow=hidden;rotatable=0;points=[[0,0.5],[1,0.5]];portConstraint=eastwest;rounded=0;shadow=0;html=0;" vertex="1" parent="ji7AS938hCVisJoLDrU9-7">
          <mxGeometry y="150" width="160" height="26" as="geometry" />
        </mxCell>
        <mxCell id="ji7AS938hCVisJoLDrU9-20" value="status: TINYTEXT" style="text;align=left;verticalAlign=top;spacingLeft=4;spacingRight=4;overflow=hidden;rotatable=0;points=[[0,0.5],[1,0.5]];portConstraint=eastwest;rounded=0;shadow=0;html=0;" vertex="1" parent="ji7AS938hCVisJoLDrU9-7">
          <mxGeometry y="176" width="160" height="26" as="geometry" />
        </mxCell>
        <mxCell id="ji7AS938hCVisJoLDrU9-21" value="notes: MEDIUMTEXT" style="text;align=left;verticalAlign=top;spacingLeft=4;spacingRight=4;overflow=hidden;rotatable=0;points=[[0,0.5],[1,0.5]];portConstraint=eastwest;rounded=0;shadow=0;html=0;" vertex="1" parent="ji7AS938hCVisJoLDrU9-7">
          <mxGeometry y="202" width="160" height="26" as="geometry" />
        </mxCell>
        <mxCell id="ji7AS938hCVisJoLDrU9-22" value="openDate: DATETIME " style="text;align=left;verticalAlign=top;spacingLeft=4;spacingRight=4;overflow=hidden;rotatable=0;points=[[0,0.5],[1,0.5]];portConstraint=eastwest;rounded=0;shadow=0;html=0;" vertex="1" parent="ji7AS938hCVisJoLDrU9-7">
          <mxGeometry y="228" width="160" height="26" as="geometry" />
        </mxCell>
        <mxCell id="ji7AS938hCVisJoLDrU9-23" value="closeDate: DATETIME " style="text;align=left;verticalAlign=top;spacingLeft=4;spacingRight=4;overflow=hidden;rotatable=0;points=[[0,0.5],[1,0.5]];portConstraint=eastwest;rounded=0;shadow=0;html=0;" vertex="1" parent="ji7AS938hCVisJoLDrU9-7">
          <mxGeometry y="254" width="160" height="26" as="geometry" />
        </mxCell>
        <mxCell id="ji7AS938hCVisJoLDrU9-9" value="Users" style="swimlane;whiteSpace=wrap;html=1;labelBackgroundColor=default;" vertex="1" parent="ji7AS938hCVisJoLDrU9-24">
          <mxGeometry x="306.5" y="51.5" width="200" height="90" as="geometry">
            <mxRectangle x="90" y="70" width="140" height="30" as="alternateBounds" />
          </mxGeometry>
        </mxCell>
        <mxCell id="ji7AS938hCVisJoLDrU9-12" value="Username: TINYTEXT" style="text;align=left;verticalAlign=top;spacingLeft=4;spacingRight=4;overflow=hidden;rotatable=0;points=[[0,0.5],[1,0.5]];portConstraint=eastwest;rounded=0;shadow=0;html=0;" vertex="1" parent="ji7AS938hCVisJoLDrU9-9">
          <mxGeometry y="30" width="160" height="26" as="geometry" />
        </mxCell>
        <mxCell id="ji7AS938hCVisJoLDrU9-13" value="Password: TINYTEXT" style="text;align=left;verticalAlign=top;spacingLeft=4;spacingRight=4;overflow=hidden;rotatable=0;points=[[0,0.5],[1,0.5]];portConstraint=eastwest;rounded=0;shadow=0;html=0;" vertex="1" parent="ji7AS938hCVisJoLDrU9-9">
          <mxGeometry y="60" width="160" height="26" as="geometry" />
        </mxCell>
        <mxCell id="ji7AS938hCVisJoLDrU9-25" value="Risk" style="swimlane;whiteSpace=wrap;html=1;labelBackgroundColor=default;startSize=20;" vertex="1" parent="WIyWlLk6GJQsqaUBKTNV-1">
          <mxGeometry x="200" y="-1560" width="280" height="430" as="geometry">
            <mxRectangle x="100" y="470" width="140" height="30" as="alternateBounds" />
          </mxGeometry>
        </mxCell>
        <mxCell id="ji7AS938hCVisJoLDrU9-26" value="-ID: string" style="text;align=left;verticalAlign=top;spacingLeft=4;spacingRight=4;overflow=hidden;rotatable=0;points=[[0,0.5],[1,0.5]];portConstraint=eastwest;rounded=0;shadow=0;html=0;" vertex="1" parent="ji7AS938hCVisJoLDrU9-25">
          <mxGeometry y="20" width="160" height="26" as="geometry" />
        </mxCell>
        <mxCell id="ji7AS938hCVisJoLDrU9-27" value="-shortDescription: string" style="text;align=left;verticalAlign=top;spacingLeft=4;spacingRight=4;overflow=hidden;rotatable=0;points=[[0,0.5],[1,0.5]];portConstraint=eastwest;rounded=0;shadow=0;html=0;" vertex="1" parent="ji7AS938hCVisJoLDrU9-25">
          <mxGeometry y="46" width="160" height="26" as="geometry" />
        </mxCell>
        <mxCell id="ji7AS938hCVisJoLDrU9-28" value="-longDescription: string" style="text;align=left;verticalAlign=top;spacingLeft=4;spacingRight=4;overflow=hidden;rotatable=0;points=[[0,0.5],[1,0.5]];portConstraint=eastwest;rounded=0;shadow=0;html=0;" vertex="1" parent="ji7AS938hCVisJoLDrU9-25">
          <mxGeometry y="72" width="160" height="26" as="geometry" />
        </mxCell>
        <mxCell id="ji7AS938hCVisJoLDrU9-29" value="-likelihoodRank: int" style="text;align=left;verticalAlign=top;spacingLeft=4;spacingRight=4;overflow=hidden;rotatable=0;points=[[0,0.5],[1,0.5]];portConstraint=eastwest;rounded=0;shadow=0;html=0;" vertex="1" parent="ji7AS938hCVisJoLDrU9-25">
          <mxGeometry y="98" width="160" height="26" as="geometry" />
        </mxCell>
        <mxCell id="ji7AS938hCVisJoLDrU9-30" value="-impactRank: int" style="text;align=left;verticalAlign=top;spacingLeft=4;spacingRight=4;overflow=hidden;rotatable=0;points=[[0,0.5],[1,0.5]];portConstraint=eastwest;rounded=0;shadow=0;html=0;" vertex="1" parent="ji7AS938hCVisJoLDrU9-25">
          <mxGeometry y="124" width="160" height="26" as="geometry" />
        </mxCell>
        <mxCell id="ji7AS938hCVisJoLDrU9-31" value="-owner: string" style="text;align=left;verticalAlign=top;spacingLeft=4;spacingRight=4;overflow=hidden;rotatable=0;points=[[0,0.5],[1,0.5]];portConstraint=eastwest;rounded=0;shadow=0;html=0;" vertex="1" parent="ji7AS938hCVisJoLDrU9-25">
          <mxGeometry y="150" width="160" height="26" as="geometry" />
        </mxCell>
        <mxCell id="ji7AS938hCVisJoLDrU9-32" value="-status: string" style="text;align=left;verticalAlign=top;spacingLeft=4;spacingRight=4;overflow=hidden;rotatable=0;points=[[0,0.5],[1,0.5]];portConstraint=eastwest;rounded=0;shadow=0;html=0;" vertex="1" parent="ji7AS938hCVisJoLDrU9-25">
          <mxGeometry y="176" width="160" height="26" as="geometry" />
        </mxCell>
        <mxCell id="ji7AS938hCVisJoLDrU9-33" value="-notes: string" style="text;align=left;verticalAlign=top;spacingLeft=4;spacingRight=4;overflow=hidden;rotatable=0;points=[[0,0.5],[1,0.5]];portConstraint=eastwest;rounded=0;shadow=0;html=0;" vertex="1" parent="ji7AS938hCVisJoLDrU9-25">
          <mxGeometry y="202" width="160" height="26" as="geometry" />
        </mxCell>
        <mxCell id="ji7AS938hCVisJoLDrU9-34" value="-openDate: string" style="text;align=left;verticalAlign=top;spacingLeft=4;spacingRight=4;overflow=hidden;rotatable=0;points=[[0,0.5],[1,0.5]];portConstraint=eastwest;rounded=0;shadow=0;html=0;" vertex="1" parent="ji7AS938hCVisJoLDrU9-25">
          <mxGeometry y="228" width="160" height="26" as="geometry" />
        </mxCell>
        <mxCell id="ji7AS938hCVisJoLDrU9-35" value="-closeDate: string" style="text;align=left;verticalAlign=top;spacingLeft=4;spacingRight=4;overflow=hidden;rotatable=0;points=[[0,0.5],[1,0.5]];portConstraint=eastwest;rounded=0;shadow=0;html=0;" vertex="1" parent="ji7AS938hCVisJoLDrU9-25">
          <mxGeometry y="254" width="160" height="26" as="geometry" />
        </mxCell>
        <mxCell id="ji7AS938hCVisJoLDrU9-40" value="" style="endArrow=none;html=1;rounded=0;" edge="1" parent="ji7AS938hCVisJoLDrU9-25">
          <mxGeometry width="50" height="50" relative="1" as="geometry">
            <mxPoint y="340" as="sourcePoint" />
            <mxPoint x="280" y="340" as="targetPoint" />
          </mxGeometry>
        </mxCell>
        <mxCell id="ji7AS938hCVisJoLDrU9-42" value="+saveRisk(): bool" style="text;align=left;verticalAlign=top;spacingLeft=4;spacingRight=4;overflow=hidden;rotatable=0;points=[[0,0.5],[1,0.5]];portConstraint=eastwest;rounded=0;shadow=0;html=0;" vertex="1" parent="ji7AS938hCVisJoLDrU9-25">
          <mxGeometry y="404" width="160" height="26" as="geometry" />
        </mxCell>
        <mxCell id="ji7AS938hCVisJoLDrU9-44" value="-connection: DatabaseConnection" style="text;align=left;verticalAlign=top;spacingLeft=4;spacingRight=4;overflow=hidden;rotatable=0;points=[[0,0.5],[1,0.5]];portConstraint=eastwest;rounded=0;shadow=0;html=0;" vertex="1" parent="ji7AS938hCVisJoLDrU9-25">
          <mxGeometry y="280" width="190" height="26" as="geometry" />
        </mxCell>
        <mxCell id="ji7AS938hCVisJoLDrU9-69" value="+Risk(ID, shortDescription, longDescription, &#xa;                likelihoodRank, impactRank, owner, &#xa;                status, notes, openDate, closeDate)" style="text;align=left;verticalAlign=top;spacingLeft=4;spacingRight=4;overflow=hidden;rotatable=0;points=[[0,0.5],[1,0.5]];portConstraint=eastwest;rounded=0;shadow=0;html=0;" vertex="1" parent="ji7AS938hCVisJoLDrU9-25">
          <mxGeometry y="350" width="259" height="54" as="geometry" />
        </mxCell>
        <mxCell id="WTD2gzEiXnP--HIe_Q8e-98" value="-hashFunction: Wt::Auth::BCryptHashFunction" style="text;align=left;verticalAlign=top;spacingLeft=4;spacingRight=4;overflow=hidden;rotatable=0;points=[[0,0.5],[1,0.5]];portConstraint=eastwest;rounded=0;shadow=0;html=0;" vertex="1" parent="ji7AS938hCVisJoLDrU9-25">
          <mxGeometry y="306" width="255" height="26" as="geometry" />
        </mxCell>
        <mxCell id="WTD2gzEiXnP--HIe_Q8e-68" style="edgeStyle=orthogonalEdgeStyle;rounded=0;orthogonalLoop=1;jettySize=auto;html=1;entryX=0.5;entryY=0;entryDx=0;entryDy=0;" edge="1" parent="WIyWlLk6GJQsqaUBKTNV-1" source="ji7AS938hCVisJoLDrU9-45" target="ji7AS938hCVisJoLDrU9-24">
          <mxGeometry relative="1" as="geometry" />
        </mxCell>
        <mxCell id="ji7AS938hCVisJoLDrU9-45" value="DatabaseConnection" style="swimlane;whiteSpace=wrap;html=1;labelBackgroundColor=default;startSize=20;" vertex="1" parent="WIyWlLk6GJQsqaUBKTNV-1">
          <mxGeometry x="620" y="-1220" width="360" height="150" as="geometry">
            <mxRectangle x="100" y="470" width="140" height="30" as="alternateBounds" />
          </mxGeometry>
        </mxCell>
        <mxCell id="ji7AS938hCVisJoLDrU9-46" value="-connection: Wt::Dbo::backend::MySQL" style="text;align=left;verticalAlign=top;spacingLeft=4;spacingRight=4;overflow=hidden;rotatable=0;points=[[0,0.5],[1,0.5]];portConstraint=eastwest;rounded=0;shadow=0;html=0;" vertex="1" parent="ji7AS938hCVisJoLDrU9-45">
          <mxGeometry y="20" width="230" height="26" as="geometry" />
        </mxCell>
        <mxCell id="ji7AS938hCVisJoLDrU9-53" value="+make_query(query: string): void" style="text;align=left;verticalAlign=top;spacingLeft=4;spacingRight=4;overflow=hidden;rotatable=0;points=[[0,0.5],[1,0.5]];portConstraint=eastwest;rounded=0;shadow=0;html=0;" vertex="1" parent="ji7AS938hCVisJoLDrU9-45">
          <mxGeometry y="94" width="200" height="26" as="geometry" />
        </mxCell>
        <mxCell id="ji7AS938hCVisJoLDrU9-56" value="" style="endArrow=none;html=1;rounded=0;" edge="1" parent="ji7AS938hCVisJoLDrU9-45">
          <mxGeometry width="50" height="50" relative="1" as="geometry">
            <mxPoint y="70" as="sourcePoint" />
            <mxPoint x="360" y="70" as="targetPoint" />
          </mxGeometry>
        </mxCell>
        <mxCell id="ji7AS938hCVisJoLDrU9-67" value="+DatabaseConnection()" style="text;align=left;verticalAlign=top;spacingLeft=4;spacingRight=4;overflow=hidden;rotatable=0;points=[[0,0.5],[1,0.5]];portConstraint=eastwest;rounded=0;shadow=0;html=0;" vertex="1" parent="ji7AS938hCVisJoLDrU9-45">
          <mxGeometry y="70" width="180" height="26" as="geometry" />
        </mxCell>
        <mxCell id="WTD2gzEiXnP--HIe_Q8e-66" value="+authenticate_user(username: string, password: string): User*" style="text;align=left;verticalAlign=top;spacingLeft=4;spacingRight=4;overflow=hidden;rotatable=0;points=[[0,0.5],[1,0.5]];portConstraint=eastwest;rounded=0;shadow=0;html=0;" vertex="1" parent="ji7AS938hCVisJoLDrU9-45">
          <mxGeometry y="118" width="360" height="26" as="geometry" />
        </mxCell>
        <mxCell id="WTD2gzEiXnP--HIe_Q8e-94" value="-hashFunction: Wt::Auth::MD5HashFunction&#xa;" style="text;align=left;verticalAlign=top;spacingLeft=4;spacingRight=4;overflow=hidden;rotatable=0;points=[[0,0.5],[1,0.5]];portConstraint=eastwest;rounded=0;shadow=0;html=0;" vertex="1" parent="ji7AS938hCVisJoLDrU9-45">
          <mxGeometry y="44" width="255" height="26" as="geometry" />
        </mxCell>
        <mxCell id="ji7AS938hCVisJoLDrU9-68" value="" style="endArrow=none;html=1;endFill=0;startArrow=diamondThin;startFill=0;edgeStyle=elbowEdgeStyle;elbow=vertical;rounded=0;entryX=0;entryY=0.5;entryDx=0;entryDy=0;startSize=18;" edge="1" parent="WIyWlLk6GJQsqaUBKTNV-1" target="ji7AS938hCVisJoLDrU9-46">
          <mxGeometry width="100" height="75" relative="1" as="geometry">
            <mxPoint x="480" y="-1190" as="sourcePoint" />
            <mxPoint x="600" y="-1180" as="targetPoint" />
            <Array as="points">
              <mxPoint x="540" y="-1190" />
              <mxPoint x="550" y="-1190" />
            </Array>
          </mxGeometry>
        </mxCell>
        <mxCell id="cZLbAc4f_YzfMSzbzdzr-9" value="" style="endArrow=block;endSize=16;endFill=0;html=1;rounded=0;" edge="1" parent="WIyWlLk6GJQsqaUBKTNV-1">
          <mxGeometry x="0.5" width="160" relative="1" as="geometry">
            <mxPoint x="1219.5" y="-1530" as="sourcePoint" />
            <mxPoint x="1220" y="-1640" as="targetPoint" />
            <Array as="points" />
            <mxPoint as="offset" />
          </mxGeometry>
        </mxCell>
        <mxCell id="cZLbAc4f_YzfMSzbzdzr-10" value="" style="endArrow=block;dashed=1;endFill=0;endSize=12;html=1;rounded=0;exitX=1.019;exitY=0.192;exitDx=0;exitDy=0;exitPerimeter=0;" edge="1" parent="WIyWlLk6GJQsqaUBKTNV-1">
          <mxGeometry width="160" relative="1" as="geometry">
            <mxPoint x="809.04" y="-1719.392" as="sourcePoint" />
            <mxPoint x="910" y="-1780" as="targetPoint" />
            <Array as="points">
              <mxPoint x="910" y="-1720" />
              <mxPoint x="910" y="-1750" />
            </Array>
          </mxGeometry>
        </mxCell>
        <mxCell id="WTD2gzEiXnP--HIe_Q8e-1" value="Report" style="swimlane;whiteSpace=wrap;html=1;labelBackgroundColor=default;startSize=20;" vertex="1" parent="WIyWlLk6GJQsqaUBKTNV-1">
          <mxGeometry x="660" y="-1470" width="280" height="140" as="geometry">
            <mxRectangle x="100" y="470" width="140" height="30" as="alternateBounds" />
          </mxGeometry>
        </mxCell>
        <mxCell id="WTD2gzEiXnP--HIe_Q8e-12" value="" style="endArrow=none;html=1;rounded=0;" edge="1" parent="WTD2gzEiXnP--HIe_Q8e-1">
          <mxGeometry width="50" height="50" relative="1" as="geometry">
            <mxPoint y="50" as="sourcePoint" />
            <mxPoint x="280" y="50" as="targetPoint" />
          </mxGeometry>
        </mxCell>
        <mxCell id="WTD2gzEiXnP--HIe_Q8e-13" value="+displayRiskMatrix(ID: string): void" style="text;align=left;verticalAlign=top;spacingLeft=4;spacingRight=4;overflow=hidden;rotatable=0;points=[[0,0.5],[1,0.5]];portConstraint=eastwest;rounded=0;shadow=0;html=0;" vertex="1" parent="WTD2gzEiXnP--HIe_Q8e-1">
          <mxGeometry y="110" width="210" height="26" as="geometry" />
        </mxCell>
        <mxCell id="WTD2gzEiXnP--HIe_Q8e-15" value="-connection: DatabaseConnection" style="text;align=left;verticalAlign=top;spacingLeft=4;spacingRight=4;overflow=hidden;rotatable=0;points=[[0,0.5],[1,0.5]];portConstraint=eastwest;rounded=0;shadow=0;html=0;" vertex="1" parent="WTD2gzEiXnP--HIe_Q8e-1">
          <mxGeometry y="20" width="190" height="26" as="geometry" />
        </mxCell>
        <mxCell id="WTD2gzEiXnP--HIe_Q8e-16" value="+displayReport(): WTable*" style="text;align=left;verticalAlign=top;spacingLeft=4;spacingRight=4;overflow=hidden;rotatable=0;points=[[0,0.5],[1,0.5]];portConstraint=eastwest;rounded=0;shadow=0;html=0;" vertex="1" parent="WTD2gzEiXnP--HIe_Q8e-1">
          <mxGeometry y="80" width="259" height="30" as="geometry" />
        </mxCell>
        <mxCell id="WTD2gzEiXnP--HIe_Q8e-28" value="+Report()" style="text;align=left;verticalAlign=top;spacingLeft=4;spacingRight=4;overflow=hidden;rotatable=0;points=[[0,0.5],[1,0.5]];portConstraint=eastwest;rounded=0;shadow=0;html=0;" vertex="1" parent="WTD2gzEiXnP--HIe_Q8e-1">
          <mxGeometry y="50" width="259" height="30" as="geometry" />
        </mxCell>
        <mxCell id="WTD2gzEiXnP--HIe_Q8e-36" value="&lt;span style=&quot;text-wrap: nowrap; background-color: rgb(251, 251, 251);&quot;&gt;&lt;i&gt;User&lt;/i&gt;&lt;/span&gt;" style="swimlane;whiteSpace=wrap;html=1;labelBackgroundColor=default;startSize=30;" vertex="1" parent="WIyWlLk6GJQsqaUBKTNV-1">
          <mxGeometry x="783" y="-2210" width="287" height="430" as="geometry">
            <mxRectangle x="100" y="470" width="140" height="30" as="alternateBounds" />
          </mxGeometry>
        </mxCell>
        <mxCell id="WTD2gzEiXnP--HIe_Q8e-46" value="+addRisk(): bool" style="text;strokeColor=none;fillColor=none;align=left;verticalAlign=top;spacingLeft=4;spacingRight=4;overflow=hidden;rotatable=0;points=[[0,0.5],[1,0.5]];portConstraint=eastwest;fontStyle=2" vertex="1" parent="WTD2gzEiXnP--HIe_Q8e-36">
          <mxGeometry y="302" width="160" height="26" as="geometry" />
        </mxCell>
        <mxCell id="WTD2gzEiXnP--HIe_Q8e-47" value="+deleteRisk(): bool" style="text;strokeColor=none;fillColor=none;align=left;verticalAlign=top;spacingLeft=4;spacingRight=4;overflow=hidden;rotatable=0;points=[[0,0.5],[1,0.5]];portConstraint=eastwest;fontStyle=2" vertex="1" parent="WTD2gzEiXnP--HIe_Q8e-36">
          <mxGeometry y="328" width="160" height="26" as="geometry" />
        </mxCell>
        <mxCell id="WTD2gzEiXnP--HIe_Q8e-48" value="+editRisk(): bool" style="text;strokeColor=none;fillColor=none;align=left;verticalAlign=top;spacingLeft=4;spacingRight=4;overflow=hidden;rotatable=0;points=[[0,0.5],[1,0.5]];portConstraint=eastwest;fontStyle=2" vertex="1" parent="WTD2gzEiXnP--HIe_Q8e-36">
          <mxGeometry y="354" width="160" height="26" as="geometry" />
        </mxCell>
        <mxCell id="WTD2gzEiXnP--HIe_Q8e-74" value="+rankRisk(likelihood: int, impact: int): void" style="text;strokeColor=none;fillColor=none;align=left;verticalAlign=top;spacingLeft=4;spacingRight=4;overflow=hidden;rotatable=0;points=[[0,0.5],[1,0.5]];portConstraint=eastwest;fontStyle=2" vertex="1" parent="WTD2gzEiXnP--HIe_Q8e-36">
          <mxGeometry y="70" width="287" height="26" as="geometry" />
        </mxCell>
        <mxCell id="WTD2gzEiXnP--HIe_Q8e-75" value="+statusType(): bool" style="text;strokeColor=none;fillColor=none;align=left;verticalAlign=top;spacingLeft=4;spacingRight=4;overflow=hidden;rotatable=0;points=[[0,0.5],[1,0.5]];portConstraint=eastwest;fontStyle=2" vertex="1" parent="WTD2gzEiXnP--HIe_Q8e-36">
          <mxGeometry y="96" width="287" height="26" as="geometry" />
        </mxCell>
        <mxCell id="WTD2gzEiXnP--HIe_Q8e-76" value="+idFormat(): bool" style="text;strokeColor=none;fillColor=none;align=left;verticalAlign=top;spacingLeft=4;spacingRight=4;overflow=hidden;rotatable=0;points=[[0,0.5],[1,0.5]];portConstraint=eastwest;fontStyle=2" vertex="1" parent="WTD2gzEiXnP--HIe_Q8e-36">
          <mxGeometry y="122" width="287" height="26" as="geometry" />
        </mxCell>
        <mxCell id="WTD2gzEiXnP--HIe_Q8e-77" value="+purgeRisk(criteria: string): void" style="text;strokeColor=none;fillColor=none;align=left;verticalAlign=top;spacingLeft=4;spacingRight=4;overflow=hidden;rotatable=0;points=[[0,0.5],[1,0.5]];portConstraint=eastwest;fontStyle=2" vertex="1" parent="WTD2gzEiXnP--HIe_Q8e-36">
          <mxGeometry y="148" width="287" height="26" as="geometry" />
        </mxCell>
        <mxCell id="WTD2gzEiXnP--HIe_Q8e-78" value="+displayReport(int): void" style="text;strokeColor=none;fillColor=none;align=left;verticalAlign=top;spacingLeft=4;spacingRight=4;overflow=hidden;rotatable=0;points=[[0,0.5],[1,0.5]];portConstraint=eastwest;fontStyle=2" vertex="1" parent="WTD2gzEiXnP--HIe_Q8e-36">
          <mxGeometry y="174" width="287" height="24" as="geometry" />
        </mxCell>
        <mxCell id="WTD2gzEiXnP--HIe_Q8e-79" value="+addUser(): bool" style="text;strokeColor=none;fillColor=none;align=left;verticalAlign=top;spacingLeft=4;spacingRight=4;overflow=hidden;rotatable=0;points=[[0,0.5],[1,0.5]];portConstraint=eastwest;fontStyle=2" vertex="1" parent="WTD2gzEiXnP--HIe_Q8e-36">
          <mxGeometry y="198" width="287" height="26" as="geometry" />
        </mxCell>
        <mxCell id="WTD2gzEiXnP--HIe_Q8e-80" value="+changeUserRole(role: string, user: User*): bool" style="text;strokeColor=none;fillColor=none;align=left;verticalAlign=top;spacingLeft=4;spacingRight=4;overflow=hidden;rotatable=0;points=[[0,0.5],[1,0.5]];portConstraint=eastwest;fontStyle=2" vertex="1" parent="WTD2gzEiXnP--HIe_Q8e-36">
          <mxGeometry y="224" width="287" height="26" as="geometry" />
        </mxCell>
        <mxCell id="WTD2gzEiXnP--HIe_Q8e-81" value="+deleteUser(): bool" style="text;strokeColor=none;fillColor=none;align=left;verticalAlign=top;spacingLeft=4;spacingRight=4;overflow=hidden;rotatable=0;points=[[0,0.5],[1,0.5]];portConstraint=eastwest;fontStyle=2" vertex="1" parent="WTD2gzEiXnP--HIe_Q8e-36">
          <mxGeometry y="250" width="287" height="26" as="geometry" />
        </mxCell>
        <mxCell id="WTD2gzEiXnP--HIe_Q8e-82" value="+editUser(user: User*): bool" style="text;strokeColor=none;fillColor=none;align=left;verticalAlign=top;spacingLeft=4;spacingRight=4;overflow=hidden;rotatable=0;points=[[0,0.5],[1,0.5]];portConstraint=eastwest;fontStyle=2" vertex="1" parent="WTD2gzEiXnP--HIe_Q8e-36">
          <mxGeometry y="276" width="287" height="26" as="geometry" />
        </mxCell>
        <mxCell id="GBgEzfNIPSOAwS22-8Gl-0" value="" style="endArrow=none;html=1;rounded=0;" edge="1" parent="WTD2gzEiXnP--HIe_Q8e-36">
          <mxGeometry width="50" height="50" relative="1" as="geometry">
            <mxPoint y="70" as="sourcePoint" />
            <mxPoint x="287" y="70" as="targetPoint" />
          </mxGeometry>
        </mxCell>
        <mxCell id="GBgEzfNIPSOAwS22-8Gl-1" value="#role: string&#xa;#username: string" style="text;strokeColor=none;fillColor=none;align=left;verticalAlign=top;spacingLeft=4;spacingRight=4;overflow=hidden;rotatable=0;points=[[0,0.5],[1,0.5]];portConstraint=eastwest;" vertex="1" parent="WTD2gzEiXnP--HIe_Q8e-36">
          <mxGeometry y="30" width="160" height="40" as="geometry" />
        </mxCell>
        <mxCell id="GBgEzfNIPSOAwS22-8Gl-2" value="+getRole(): string" style="text;strokeColor=none;fillColor=none;align=left;verticalAlign=top;spacingLeft=4;spacingRight=4;overflow=hidden;rotatable=0;points=[[0,0.5],[1,0.5]];portConstraint=eastwest;" vertex="1" parent="WTD2gzEiXnP--HIe_Q8e-36">
          <mxGeometry y="380" width="160" height="26" as="geometry" />
        </mxCell>
        <mxCell id="GBgEzfNIPSOAwS22-8Gl-4" value="+getUsername(): string" style="text;strokeColor=none;fillColor=none;align=left;verticalAlign=top;spacingLeft=4;spacingRight=4;overflow=hidden;rotatable=0;points=[[0,0.5],[1,0.5]];portConstraint=eastwest;" vertex="1" parent="WTD2gzEiXnP--HIe_Q8e-36">
          <mxGeometry y="404" width="160" height="26" as="geometry" />
        </mxCell>
        <mxCell id="WTD2gzEiXnP--HIe_Q8e-51" value="&lt;span style=&quot;text-wrap: nowrap; background-color: rgb(251, 251, 251);&quot;&gt;Track&lt;/span&gt;" style="swimlane;whiteSpace=wrap;html=1;labelBackgroundColor=default;startSize=30;" vertex="1" parent="WIyWlLk6GJQsqaUBKTNV-1">
          <mxGeometry x="1075" y="-1790" width="240" height="150" as="geometry">
            <mxRectangle x="100" y="470" width="140" height="30" as="alternateBounds" />
          </mxGeometry>
        </mxCell>
        <mxCell id="WTD2gzEiXnP--HIe_Q8e-53" value="+addRisk(): bool" style="text;strokeColor=none;fillColor=none;align=left;verticalAlign=top;spacingLeft=4;spacingRight=4;overflow=hidden;rotatable=0;points=[[0,0.5],[1,0.5]];portConstraint=eastwest;" vertex="1" parent="WTD2gzEiXnP--HIe_Q8e-51">
          <mxGeometry y="59" width="160" height="26" as="geometry" />
        </mxCell>
        <mxCell id="WTD2gzEiXnP--HIe_Q8e-54" value="+deleteRisk(): bool" style="text;strokeColor=none;fillColor=none;align=left;verticalAlign=top;spacingLeft=4;spacingRight=4;overflow=hidden;rotatable=0;points=[[0,0.5],[1,0.5]];portConstraint=eastwest;" vertex="1" parent="WTD2gzEiXnP--HIe_Q8e-51">
          <mxGeometry y="85" width="160" height="26" as="geometry" />
        </mxCell>
        <mxCell id="WTD2gzEiXnP--HIe_Q8e-55" value="+editRisk(): bool" style="text;strokeColor=none;fillColor=none;align=left;verticalAlign=top;spacingLeft=4;spacingRight=4;overflow=hidden;rotatable=0;points=[[0,0.5],[1,0.5]];portConstraint=eastwest;" vertex="1" parent="WTD2gzEiXnP--HIe_Q8e-51">
          <mxGeometry y="111" width="160" height="26" as="geometry" />
        </mxCell>
        <mxCell id="WTD2gzEiXnP--HIe_Q8e-83" value="+Track()" style="text;strokeColor=none;fillColor=none;align=left;verticalAlign=top;spacingLeft=4;spacingRight=4;overflow=hidden;rotatable=0;points=[[0,0.5],[1,0.5]];portConstraint=eastwest;" vertex="1" parent="WTD2gzEiXnP--HIe_Q8e-51">
          <mxGeometry y="33" width="160" height="26" as="geometry" />
        </mxCell>
        <mxCell id="WTD2gzEiXnP--HIe_Q8e-57" value="&lt;span style=&quot;text-wrap: nowrap; background-color: rgb(251, 251, 251);&quot;&gt;Admin&lt;/span&gt;" style="swimlane;whiteSpace=wrap;html=1;labelBackgroundColor=default;startSize=20;" vertex="1" parent="WIyWlLk6GJQsqaUBKTNV-1">
          <mxGeometry x="1070" y="-1530" width="300" height="340" as="geometry">
            <mxRectangle x="100" y="470" width="140" height="30" as="alternateBounds" />
          </mxGeometry>
        </mxCell>
        <mxCell id="WTD2gzEiXnP--HIe_Q8e-58" value="-connection: DatabaseConnection" style="text;align=left;verticalAlign=top;spacingLeft=4;spacingRight=4;overflow=hidden;rotatable=0;points=[[0,0.5],[1,0.5]];portConstraint=eastwest;rounded=0;shadow=0;html=0;" vertex="1" parent="WTD2gzEiXnP--HIe_Q8e-57">
          <mxGeometry y="20" width="230" height="26" as="geometry" />
        </mxCell>
        <mxCell id="WTD2gzEiXnP--HIe_Q8e-60" value="" style="endArrow=none;html=1;rounded=0;" edge="1" parent="WTD2gzEiXnP--HIe_Q8e-57">
          <mxGeometry width="50" height="50" relative="1" as="geometry">
            <mxPoint y="50" as="sourcePoint" />
            <mxPoint x="300" y="50" as="targetPoint" />
          </mxGeometry>
        </mxCell>
        <mxCell id="s34tLAGhzksWvKOeTSz6-11" value="+rankRisk(likelihood: int, impact: int): void" style="text;strokeColor=none;fillColor=none;align=left;verticalAlign=top;spacingLeft=4;spacingRight=4;overflow=hidden;rotatable=0;points=[[0,0.5],[1,0.5]];portConstraint=eastwest;" vertex="1" parent="WTD2gzEiXnP--HIe_Q8e-57">
          <mxGeometry y="76" width="287" height="26" as="geometry" />
        </mxCell>
        <mxCell id="s34tLAGhzksWvKOeTSz6-12" value="+statusType(): bool" style="text;strokeColor=none;fillColor=none;align=left;verticalAlign=top;spacingLeft=4;spacingRight=4;overflow=hidden;rotatable=0;points=[[0,0.5],[1,0.5]];portConstraint=eastwest;" vertex="1" parent="WTD2gzEiXnP--HIe_Q8e-57">
          <mxGeometry y="102" width="287" height="26" as="geometry" />
        </mxCell>
        <mxCell id="s34tLAGhzksWvKOeTSz6-13" value="+idFormat(): bool" style="text;strokeColor=none;fillColor=none;align=left;verticalAlign=top;spacingLeft=4;spacingRight=4;overflow=hidden;rotatable=0;points=[[0,0.5],[1,0.5]];portConstraint=eastwest;" vertex="1" parent="WTD2gzEiXnP--HIe_Q8e-57">
          <mxGeometry y="128" width="287" height="26" as="geometry" />
        </mxCell>
        <mxCell id="s34tLAGhzksWvKOeTSz6-15" value="+purgeRisk(criteria: string): void" style="text;strokeColor=none;fillColor=none;align=left;verticalAlign=top;spacingLeft=4;spacingRight=4;overflow=hidden;rotatable=0;points=[[0,0.5],[1,0.5]];portConstraint=eastwest;" vertex="1" parent="WTD2gzEiXnP--HIe_Q8e-57">
          <mxGeometry y="154" width="287" height="26" as="geometry" />
        </mxCell>
        <mxCell id="cZLbAc4f_YzfMSzbzdzr-0" value="+addUser(): bool" style="text;strokeColor=none;fillColor=none;align=left;verticalAlign=top;spacingLeft=4;spacingRight=4;overflow=hidden;rotatable=0;points=[[0,0.5],[1,0.5]];portConstraint=eastwest;" vertex="1" parent="WTD2gzEiXnP--HIe_Q8e-57">
          <mxGeometry y="180" width="287" height="26" as="geometry" />
        </mxCell>
        <mxCell id="cZLbAc4f_YzfMSzbzdzr-4" value="+changeUserRole(role: string, user: User*): bool" style="text;strokeColor=none;fillColor=none;align=left;verticalAlign=top;spacingLeft=4;spacingRight=4;overflow=hidden;rotatable=0;points=[[0,0.5],[1,0.5]];portConstraint=eastwest;" vertex="1" parent="WTD2gzEiXnP--HIe_Q8e-57">
          <mxGeometry y="206" width="287" height="26" as="geometry" />
        </mxCell>
        <mxCell id="cZLbAc4f_YzfMSzbzdzr-2" value="+deleteUser(): bool" style="text;strokeColor=none;fillColor=none;align=left;verticalAlign=top;spacingLeft=4;spacingRight=4;overflow=hidden;rotatable=0;points=[[0,0.5],[1,0.5]];portConstraint=eastwest;" vertex="1" parent="WTD2gzEiXnP--HIe_Q8e-57">
          <mxGeometry y="232" width="287" height="26" as="geometry" />
        </mxCell>
        <mxCell id="cZLbAc4f_YzfMSzbzdzr-1" value="+editUser(user: User*): bool" style="text;strokeColor=none;fillColor=none;align=left;verticalAlign=top;spacingLeft=4;spacingRight=4;overflow=hidden;rotatable=0;points=[[0,0.5],[1,0.5]];portConstraint=eastwest;" vertex="1" parent="WTD2gzEiXnP--HIe_Q8e-57">
          <mxGeometry y="258" width="287" height="26" as="geometry" />
        </mxCell>
        <mxCell id="WTD2gzEiXnP--HIe_Q8e-63" value="+Admin()" style="text;strokeColor=none;fillColor=none;align=left;verticalAlign=top;spacingLeft=4;spacingRight=4;overflow=hidden;rotatable=0;points=[[0,0.5],[1,0.5]];portConstraint=eastwest;" vertex="1" parent="WTD2gzEiXnP--HIe_Q8e-57">
          <mxGeometry y="50" width="287" height="26" as="geometry" />
        </mxCell>
        <mxCell id="WTD2gzEiXnP--HIe_Q8e-64" value="" style="endArrow=none;html=1;endFill=0;startArrow=diamondThin;startFill=0;edgeStyle=elbowEdgeStyle;elbow=vertical;rounded=0;startSize=18;" edge="1" parent="WIyWlLk6GJQsqaUBKTNV-1">
          <mxGeometry width="100" height="75" relative="1" as="geometry">
            <mxPoint x="1070" y="-1210" as="sourcePoint" />
            <mxPoint x="980" y="-1210" as="targetPoint" />
            <Array as="points" />
          </mxGeometry>
        </mxCell>
        <mxCell id="WTD2gzEiXnP--HIe_Q8e-65" value="" style="endArrow=none;html=1;endFill=0;startArrow=diamondThin;startFill=0;edgeStyle=elbowEdgeStyle;elbow=vertical;rounded=0;entryX=0.5;entryY=0;entryDx=0;entryDy=0;startSize=18;" edge="1" parent="WIyWlLk6GJQsqaUBKTNV-1" target="ji7AS938hCVisJoLDrU9-45">
          <mxGeometry width="100" height="75" relative="1" as="geometry">
            <mxPoint x="800" y="-1330" as="sourcePoint" />
            <mxPoint x="760" y="-1247" as="targetPoint" />
            <Array as="points">
              <mxPoint x="680" y="-1250" />
              <mxPoint x="690" y="-1250" />
            </Array>
          </mxGeometry>
        </mxCell>
        <mxCell id="WTD2gzEiXnP--HIe_Q8e-70" value="" style="endArrow=none;dashed=1;html=1;rounded=0;entryX=0;entryY=0.5;entryDx=0;entryDy=0;" edge="1" parent="WIyWlLk6GJQsqaUBKTNV-1" target="WTD2gzEiXnP--HIe_Q8e-53">
          <mxGeometry width="50" height="50" relative="1" as="geometry">
            <mxPoint x="910" y="-1719" as="sourcePoint" />
            <mxPoint x="1080" y="-1720" as="targetPoint" />
          </mxGeometry>
        </mxCell>
        <mxCell id="WTD2gzEiXnP--HIe_Q8e-86" value="&lt;span style=&quot;text-wrap: nowrap; background-color: rgb(251, 251, 251);&quot;&gt;Audit&lt;/span&gt;" style="swimlane;whiteSpace=wrap;html=1;labelBackgroundColor=default;startSize=30;" vertex="1" parent="WIyWlLk6GJQsqaUBKTNV-1">
          <mxGeometry x="570" y="-1760" width="240" height="60" as="geometry">
            <mxRectangle x="100" y="470" width="140" height="30" as="alternateBounds" />
          </mxGeometry>
        </mxCell>
        <mxCell id="WTD2gzEiXnP--HIe_Q8e-92" value="+Audit()" style="text;strokeColor=none;fillColor=none;align=left;verticalAlign=top;spacingLeft=4;spacingRight=4;overflow=hidden;rotatable=0;points=[[0,0.5],[1,0.5]];portConstraint=eastwest;" vertex="1" parent="WTD2gzEiXnP--HIe_Q8e-86">
          <mxGeometry y="32" width="160" height="26" as="geometry" />
        </mxCell>
      </root>
    </mxGraphModel>
  </diagram>
</mxfile>
